<svg xmlns="http://www.w3.org/2000/svg" xmlns:xlink="http://www.w3.org/1999/xlink" width="118" zoomAndPan="magnify" viewBox="0 0 88.5 30.000001" height="40" preserveAspectRatio="xMidYMid meet" version="1.0"><defs><g/></defs><g fill="#ffffff" fill-opacity="1"><g transform="translate(4.705399, 22.106674)"><g><path d="M 9.101562 0.289062 C 13.269531 0.289062 16.859375 -2.140625 16.859375 -6.308594 C 16.859375 -14.574219 6.996094 -12.507812 6.996094 -15.808594 C 6.996094 -16.75 7.722656 -17.1875 8.59375 -17.1875 C 9.679688 -17.1875 10.878906 -16.535156 12.039062 -15.300781 L 15.664062 -18.816406 C 13.960938 -20.8125 11.386719 -22.046875 8.664062 -22.046875 C 5.222656 -22.046875 1.414062 -20.050781 1.414062 -15.410156 C 1.414062 -7.867188 11.3125 -9.679688 11.3125 -6.382812 C 11.3125 -5.511719 10.585938 -4.894531 9.171875 -4.894531 C 7.289062 -4.894531 5.765625 -5.910156 5.003906 -7.542969 L 0.472656 -4.714844 C 1.921875 -1.957031 5.113281 0.289062 9.101562 0.289062 Z M 9.101562 0.289062 "/></g></g></g><g fill="#ffffff" fill-opacity="1"><g transform="translate(23.430463, 22.106674)"><g><path d="M 15.664062 -16.933594 L 15.664062 -21.753906 L 2.175781 -21.753906 L 2.175781 0 L 15.664062 0 L 15.664062 -4.824219 L 7.722656 -4.824219 L 7.722656 -8.484375 L 14.429688 -8.484375 L 14.429688 -13.269531 L 7.722656 -13.269531 L 7.722656 -16.933594 Z M 15.664062 -16.933594 "/></g></g></g><g fill="#ffffff" fill-opacity="1"><g transform="translate(41.394365, 22.106674)"><g><path d="M 15.082031 -21.753906 L 10.332031 -7.289062 L 5.582031 -21.753906 L -0.652344 -21.753906 L 7.214844 0 L 13.414062 0 L 21.285156 -21.753906 Z M 15.082031 -21.753906 "/></g></g></g><g fill="#ffffff" fill-opacity="1"><g transform="translate(63.127836, 22.106674)"><g><path d="M 15.335938 0 L 21.285156 0 L 13.414062 -21.753906 L 7.214844 -21.753906 L -0.652344 0 L 5.328125 0 L 6.527344 -3.808594 L 14.140625 -3.808594 Z M 7.941406 -8.304688 L 10.332031 -15.988281 L 12.761719 -8.304688 Z M 7.941406 -8.304688 "/></g></g></g></svg>